<?xml version="1.0" standalone="no"?>
<!DOCTYPE svg PUBLIC "-//W3C//DTD SVG 20010904//EN"
 "http://www.w3.org/TR/2001/REC-SVG-20010904/DTD/svg10.dtd">
<svg version="1.0" xmlns="http://www.w3.org/2000/svg"
 width="342.000000pt" height="342.000000pt" viewBox="0 0 342.000000 342.000000"
 preserveAspectRatio="xMidYMid meet">
<metadata>
Created by potrace 1.11, written by Peter Selinger 2001-2013
</metadata>
<g transform="translate(0.000000,342.000000) scale(0.100000,-0.100000)"
fill="#000000" stroke="none">
<path d="M834 1721 l0 -1161 36 -1 c156 -3 542 0 547 5 3 3 6 176 6 386 l0
380 31 0 c169 2 420 10 456 14 36 5 89 15 160 31 52 12 142 45 205 77 262 130
399 364 394 671 -2 140 -21 228 -73 332 -99 200 -299 334 -582 389 -44 9 -92
19 -109 22 -16 4 -264 9 -550 11 l-521 5 0 -1161z m979 745 c72 -20 107 -38
153 -78 70 -62 105 -170 98 -307 -8 -162 -73 -265 -202 -316 -79 -32 -155 -39
-393 -36 l-46 1 0 373 c-1 204 1 375 3 379 9 14 327 1 387 -16z"/>
</g>
</svg>
